<svg width="800" height="76" viewBox="0 0 800 76" fill="none" xmlns="http://www.w3.org/2000/svg">
<path d="M259.689 74.7191V1.26709H315.025V11.0607H270.283V32.5126H315.025V42.3062H270.283V74.7191H259.689Z" fill="#100E09"/>
<path d="M382.812 40.541V50.1353C382.812 58.2919 380.572 64.6406 376.076 69.1815C371.595 73.7225 365.015 75.9858 356.364 75.9858H349.046C339.942 75.9858 333.263 73.7225 328.994 69.1815C324.74 64.6406 322.598 58.2919 322.598 50.1353V40.541C322.598 32.3844 324.725 26.0356 328.994 21.4947C333.248 16.9538 339.942 14.6904 349.046 14.6904H356.364C365.015 14.6904 371.581 16.9538 376.076 21.4947C380.557 26.0356 382.812 32.3844 382.812 40.541ZM371.595 39.0748C371.595 33.8506 370.602 30.0356 368.617 27.6157C366.631 25.1958 363.001 23.9858 357.74 23.9858H347.6C342.651 23.9858 339.134 25.1958 337.021 27.6157C334.908 30.0356 333.844 33.8506 333.844 39.0748V51.6157C333.844 56.8399 334.893 60.6548 337.021 63.0748C339.134 65.4947 342.665 66.7047 347.6 66.7047H357.74C363.001 66.7047 366.631 65.4947 368.617 63.0748C370.602 60.6548 371.595 56.8399 371.595 51.6157V39.0748Z" fill="#100E09"/>
<path d="M391.137 34.0784C391.137 28.1425 392.924 23.63 396.497 20.5695C400.071 17.4948 404.581 15.9717 410.055 15.9717H426.264V25.2813H409.587C406.665 25.2813 404.567 25.8507 403.304 26.9895C402.028 28.1283 401.39 30.2066 401.39 33.2101V74.7332H391.137V34.0927V34.0784Z" fill="#100E09"/>
<path d="M435.808 74.7191V15.9575H503.51C510.799 15.9575 516.131 17.8223 519.507 21.5376C522.882 25.2529 524.584 30.0216 524.584 35.8294V74.7049H513.848V35.3312C513.848 31.6728 513.097 29.1675 511.608 27.7867C510.104 26.4202 507.637 25.7369 504.191 25.7369H485.556V74.7049H474.821V25.7511H446.529V74.7191H435.794H435.808Z" fill="#100E09"/>
<path d="M588.854 15.9575V74.7191H555.882C548.536 74.7191 543.161 72.9255 539.786 69.3383C536.397 65.7511 534.709 60.5269 534.709 53.6657V15.9575H545.444V54.833C545.444 58.6906 546.196 61.3241 547.685 62.7618C549.174 64.1995 551.656 64.9113 555.102 64.9113H578.132V15.9575H588.868H588.854Z" fill="#100E09"/>
<path d="M600.61 1.26709H611.345V74.7191H600.61V1.26709Z" fill="#100E09"/>
<path d="M676.438 37.2102V74.7191H640.346C634.759 74.7191 630.377 73.5803 627.228 71.2885C624.066 69.0109 622.492 65.4807 622.492 60.712C622.492 57.5091 623.64 54.6906 625.952 52.2422C628.264 49.7938 631.469 47.0323 635.567 43.9718L660.257 25.2671H623.187V15.9575H654.315C661.732 15.9575 667.276 17.8792 670.949 21.7369C674.622 25.5945 676.466 30.7476 676.466 37.2102H676.438ZM639.85 64.9255H665.702V32.897L639.453 52.8686C637.637 54.2351 636.205 55.4024 635.156 56.3419C634.12 57.2956 633.596 58.6052 633.596 60.3134C633.596 62.0216 634.22 63.1177 635.453 63.8436C636.687 64.5696 638.148 64.9255 639.85 64.9255Z" fill="#100E09"/>
<path d="M767.213 74.7189L758.817 54.9324H717.847L709.452 74.7189H697.455L725.066 12.0427C726.626 8.51246 728.299 5.62278 730.086 3.37367C731.873 1.12455 734.652 0 738.425 0C742.197 0 744.92 1.08185 746.763 3.23132C748.607 5.38078 750.195 7.97153 751.5 10.9609L779.409 74.7189H767.213ZM735.404 13.4235L722.229 44.5694H754.421L741.247 13.5231C740.793 12.3416 740.339 11.5445 739.885 11.1174C739.431 10.6904 738.907 10.4769 738.325 10.4769C737.744 10.4769 737.233 10.6619 736.808 11.0178C736.382 11.3737 735.914 12.1708 735.39 13.4235H735.404Z" fill="#100E09"/>
<path d="M788.769 74.7191V1.26709H799.986V74.7191H788.769Z" fill="#100E09"/>
<path d="M30.3198 74.5621L70.3113 28.2845C74.5941 23.3308 80.8055 20.4838 87.3431 20.4838H133.348L154.095 1.23828H80.0539C68.1132 1.23828 56.7964 6.54789 49.1385 15.7151L0 74.5621H30.3198Z" fill="#FF1E00"/>
<path d="M106.829 45.2809L127.264 25.9927H88.2935C82.706 25.9927 77.4022 28.4411 73.7576 32.6973L38.0347 74.5478H62.3132L85.6699 49.7934C88.3927 46.9037 92.1792 45.2667 96.15 45.2667H106.843L106.829 45.2809Z" fill="#FF1E00"/>
<path d="M162.717 1.23828L83.0747 74.5621H108.516L124.357 59.4447H142.665L132.823 74.5621H156.095L206.382 1.23828H162.732H162.717ZM152.209 45.281H138.34L163.27 22.491C163.965 21.8504 164.788 21.3522 165.653 21.0105C165.653 21.0105 165.667 21.0105 165.681 21.0105C166.674 20.6262 167.567 21.7792 166.986 22.676L152.209 45.281Z" fill="#FF1E00"/>
<path d="M162.944 74.5621L213.926 1.23828H241.693L191.264 74.5621H162.944Z" fill="#FF1E00"/>
</svg>
