<svg width="600" height="330" viewBox="0 0 600 330" fill="none" xmlns="http://www.w3.org/2000/svg">
<path d="M75.2606 181.469L174.54 66.9493C185.172 54.6896 200.591 47.6508 216.806 47.6508H331.022L382.55 0H198.747C169.126 0 141.017 13.1194 121.992 35.8388L0 181.469H75.2606Z" fill="#FF1E00"/>
<path d="M265.193 108.994L315.925 61.2717H219.169C205.298 61.2717 192.116 67.3344 183.095 77.8747L94.4023 181.46H154.673L212.645 120.188C219.41 113.042 228.816 108.985 238.65 108.985H265.193V108.994Z" fill="#FF1E00"/>
<path d="M403.947 0L206.229 181.469H269.399L308.721 144.072H354.181L329.751 181.469H387.507L512.318 0H403.947ZM377.842 108.994H343.416L405.307 52.594C407.052 51 409.065 49.7731 411.231 48.9313C411.249 48.9313 411.276 48.9134 411.294 48.9045C413.772 47.9552 415.992 50.8119 414.533 53.0328L377.834 108.985L377.842 108.994Z" fill="#FF1E00"/>
<path d="M404.51 181.469L531.075 0H600L474.822 181.469H404.51Z" fill="#FF1E00"/>
<path d="M0 328.594V247.281H61.4435V258.125H11.7589V281.866H61.4435V292.71H11.7589V328.594H0Z" fill="#100E09"/>
<path d="M136.731 290.758V301.379C136.731 310.415 134.243 317.445 129.259 322.469C124.274 327.492 116.981 330 107.369 330H99.2438C89.1315 330 81.7128 327.492 76.9788 322.469C72.2448 317.445 69.8823 310.415 69.8823 301.379V290.758C69.8823 281.722 72.2448 274.692 76.9788 269.669C81.7128 264.645 89.1315 262.137 99.2438 262.137H107.369C116.972 262.137 124.274 264.654 129.259 269.669C134.243 274.692 136.731 281.722 136.731 290.758ZM124.265 289.128C124.265 283.343 123.164 279.116 120.963 276.448C118.761 273.77 114.734 272.436 108.882 272.436H97.6151C92.1294 272.436 88.2098 273.77 85.8562 276.448C83.5116 279.125 82.3393 283.352 82.3393 289.128V303.009C82.3393 308.794 83.5116 313.021 85.8562 315.689C88.2008 318.367 92.1205 319.701 97.6151 319.701H108.882C114.734 319.701 118.761 318.367 120.963 315.689C123.164 313.012 124.265 308.785 124.265 303.009V289.128Z" fill="#100E09"/>
<path d="M145.975 283.603C145.975 277.03 147.953 272.042 151.926 268.639C155.891 265.245 160.911 263.543 166.978 263.543H184.984V273.842H166.459C163.22 273.842 160.884 274.478 159.479 275.74C158.065 277.003 157.358 279.304 157.358 282.627V328.594H145.975V283.603Z" fill="#100E09"/>
<path d="M195.579 328.594V263.543H270.768C278.858 263.543 284.782 265.603 288.532 269.722C292.29 273.842 294.17 279.116 294.17 285.555V328.594H282.25V285.009C282.25 280.961 281.417 278.176 279.762 276.663C278.097 275.14 275.359 274.388 271.529 274.388H250.839V328.594H238.919V274.388H207.499V328.594H195.579Z" fill="#100E09"/>
<path d="M365.538 263.543V328.594H328.919C320.757 328.594 314.797 326.606 311.039 322.63C307.28 318.654 305.401 312.869 305.401 305.283V263.543H317.321V306.582C317.321 310.845 318.153 313.773 319.809 315.367C321.473 316.961 324.212 317.749 328.042 317.749H353.609V263.543H365.529H365.538Z" fill="#100E09"/>
<path d="M378.594 247.281H390.514V328.594H378.594V247.281Z" fill="#100E09"/>
<path d="M462.786 287.069V328.594H422.703C416.493 328.594 411.633 327.331 408.134 324.797C404.626 322.272 402.881 318.367 402.881 313.083C402.881 309.546 404.161 306.412 406.729 303.707C409.289 300.994 412.85 297.94 417.397 294.546L444.807 273.842H403.633V263.543H438.194C446.427 263.543 452.584 265.675 456.664 269.937C460.745 274.2 462.786 279.913 462.786 287.069ZM422.157 317.749H450.866V282.295L421.719 304.415C419.696 305.928 418.104 307.218 416.949 308.266C415.795 309.313 415.213 310.782 415.213 312.654C415.213 314.525 415.902 315.761 417.271 316.558C418.64 317.355 420.269 317.749 422.148 317.749H422.157Z" fill="#100E09"/>
<path d="M563.596 328.594L554.28 306.689H508.775L499.459 328.594H486.134L516.793 259.209C518.529 255.304 520.381 252.107 522.368 249.618C524.355 247.128 527.442 245.875 531.63 245.875C535.818 245.875 538.834 247.066 540.892 249.457C542.951 251.839 544.705 254.695 546.145 258.018L577.127 328.594H563.587H563.596ZM528.274 260.722L513.652 295.2H549.403L534.78 260.83C534.27 259.531 533.769 258.645 533.259 258.17C532.749 257.704 532.176 257.463 531.523 257.463C530.87 257.463 530.315 257.66 529.84 258.063C529.366 258.457 528.847 259.343 528.265 260.722H528.274Z" fill="#100E09"/>
<path d="M587.543 328.594V247.281H600V328.594H587.543Z" fill="#100E09"/>
</svg>
