<svg width="460" height="460" viewBox="0 0 460 460" fill="none" xmlns="http://www.w3.org/2000/svg">
<circle cx="230" cy="230" r="230" fill="#FF1E00"/>
<path d="M87.5429 286.578L150.272 214.272C156.983 206.53 166.736 202.088 176.978 202.088H249.148L281.694 172H165.568C146.849 172 129.095 180.286 117.074 194.63L40 286.578H87.5429Z" fill="#100E09"/>
<path d="M207.542 240.815L239.599 210.687H178.473C169.711 210.687 161.384 214.517 155.679 221.173L99.6465 286.579H137.722L174.343 247.892C178.622 243.382 184.558 240.815 190.779 240.815H207.555H207.542Z" fill="#100E09"/>
<path d="M295.21 172L170.281 286.578H210.19L235.035 262.97H263.751L248.32 286.578H284.805L363.672 172H295.197H295.21ZM278.72 240.815H256.972L296.08 205.212C297.18 204.207 298.457 203.433 299.815 202.903C299.829 202.903 299.842 202.903 299.856 202.889C301.418 202.292 302.831 204.098 301.907 205.497L278.72 240.829V240.815Z" fill="#100E09"/>
<path d="M295.562 286.578L375.53 172H419.079L339.981 286.578H295.562Z" fill="#100E09"/>
</svg>
